<svg width="589" height="500" viewBox="0 0 589 500" fill="none" xmlns="http://www.w3.org/2000/svg">
<ellipse rx="228.323" ry="221.213" transform="matrix(-1 0 0 1 291.881 246.465)" fill="#FFE5D2"/>
<path fill-rule="evenodd" clip-rule="evenodd" d="M469.756 347.166C469.854 347.107 470.466 347.945 471.372 349.595C472.282 351.24 473.413 353.738 474.465 356.962C476.62 363.387 477.973 372.872 477.171 383.215C476.376 393.558 474.069 402.636 472.29 409.099C470.469 415.564 469.129 419.488 468.898 419.422C468.643 419.349 469.547 415.288 471.041 408.76C472.497 402.233 474.574 393.203 475.352 383.072C476.134 372.945 475.021 363.727 473.232 357.354C471.495 350.95 469.469 347.32 469.756 347.166Z" fill="white"/>
<path fill-rule="evenodd" clip-rule="evenodd" d="M476.345 295.001C476.459 294.949 477.2 296.354 478.437 298.946C479.672 301.538 481.407 305.315 483.461 310.028C487.533 319.453 493.015 332.647 496.991 347.966C498.946 355.628 500.278 363.077 500.953 369.918C501.633 376.757 501.702 382.972 501.362 388.158C501.033 393.347 500.4 397.511 499.792 400.342C499.191 403.179 498.714 404.706 498.606 404.682C498.269 404.614 499.758 398.369 500.074 388.096C500.467 377.843 499.168 363.599 495.228 348.453C491.297 333.301 486.04 320.1 482.276 310.558C480.381 305.783 478.848 301.918 477.787 299.246C476.752 296.564 476.23 295.055 476.345 295.001Z" fill="white"/>
<path fill-rule="evenodd" clip-rule="evenodd" d="M248.359 356.157C248.57 356.392 246.501 358.438 243.816 362.235C243.149 363.189 242.426 364.232 241.748 365.424C241.007 366.572 240.363 367.89 239.646 369.249C238.313 372.021 237.047 375.172 236.071 378.602C235.138 382.044 234.593 385.41 234.3 388.493C234.211 390.039 234.08 391.51 234.118 392.889C234.08 394.272 234.157 395.557 234.232 396.732C234.557 401.427 235.261 404.3 234.961 404.384C234.779 404.448 233.621 401.673 232.949 396.868C232.788 395.668 232.634 394.35 232.605 392.922C232.501 391.496 232.576 389.971 232.622 388.365C232.832 385.163 233.347 381.652 234.318 378.079C235.33 374.517 236.694 371.26 238.161 368.433C238.945 367.046 239.663 365.713 240.484 364.564C241.24 363.371 242.048 362.338 242.8 361.411C245.835 357.712 248.24 356.003 248.359 356.157Z" fill="white"/>
<path fill-rule="evenodd" clip-rule="evenodd" d="M253.215 372.729C253.368 372.982 252.215 373.896 250.709 375.644C249.947 376.507 249.144 377.626 248.354 378.923C247.597 380.241 246.872 381.754 246.302 383.422C245.757 385.099 245.429 386.753 245.242 388.277C245.092 389.802 245.059 391.195 245.146 392.363C245.293 394.7 245.658 396.158 245.386 396.26C245.19 396.345 244.37 395.012 243.868 392.541C243.606 391.309 243.498 389.8 243.566 388.13C243.672 386.464 243.981 384.638 244.577 382.806C245.197 380.982 246.042 379.348 246.949 377.968C247.887 376.608 248.87 375.49 249.808 374.688C251.672 373.061 253.112 372.535 253.215 372.729Z" fill="white"/>
<path fill-rule="evenodd" clip-rule="evenodd" d="M185.801 218.291C185.896 218.205 186.712 219.038 188.113 220.626C188.825 221.412 189.666 222.402 190.556 223.623C191.455 224.833 192.536 226.176 193.55 227.79C194.073 228.587 194.623 229.422 195.194 230.291C195.76 231.167 196.273 232.125 196.844 233.092C198.012 235.014 199.06 237.183 200.199 239.446C202.351 244.036 204.408 249.246 206.047 254.893C207.632 260.557 208.639 266.09 209.24 271.154C209.47 273.696 209.728 276.108 209.754 278.378C209.782 279.512 209.854 280.605 209.838 281.659C209.815 282.71 209.792 283.719 209.77 284.683C209.765 286.613 209.562 288.347 209.442 289.871C209.335 291.396 209.149 292.699 208.963 293.759C208.62 295.883 208.372 297.042 208.247 297.024C207.926 296.98 208.531 292.274 208.481 284.669C208.464 283.718 208.448 282.724 208.43 281.686C208.409 280.65 208.303 279.574 208.243 278.46C208.153 276.229 207.842 273.863 207.572 271.37C206.889 266.406 205.853 260.989 204.296 255.43C202.687 249.887 200.717 244.756 198.687 240.203C197.607 237.959 196.626 235.798 195.533 233.874C194.998 232.905 194.522 231.943 193.998 231.061C193.468 230.181 192.961 229.336 192.476 228.53C188.53 222.117 185.553 218.509 185.801 218.291Z" fill="white"/>
<path fill-rule="evenodd" clip-rule="evenodd" d="M206.463 227.151C206.618 227.007 208.714 229.039 211.379 232.955C212.72 234.904 214.133 237.361 215.509 240.193C216.845 243.045 218.12 246.284 219.137 249.794C220.124 253.313 220.75 256.751 221.125 259.898C221.454 263.051 221.557 265.909 221.452 268.301C221.267 273.088 220.573 275.974 220.368 275.941C220.075 275.904 220.31 272.982 220.161 268.3C220.101 265.96 219.869 263.181 219.458 260.125C219.003 257.075 218.344 253.75 217.388 250.331C216.399 246.921 215.207 243.758 213.991 240.942C212.733 238.144 211.472 235.681 210.295 233.682C207.965 229.668 206.237 227.347 206.463 227.151Z" fill="white"/>
<path fill-rule="evenodd" clip-rule="evenodd" d="M134.115 381.896L132.526 378.535L88.3096 413.551L107.6 445.94L151.615 407.476L134.115 381.896Z" fill="#FF7B5B"/>
<path fill-rule="evenodd" clip-rule="evenodd" d="M90.1624 414.299L107.109 444.674L108.193 444.173L93.1012 415.772L90.1624 414.299Z" fill="#D7D4D4"/>
<path fill-rule="evenodd" clip-rule="evenodd" d="M133.241 381.231L90.1624 414.299C90.1624 414.299 90.343 415.009 91.412 415.447C92.4824 415.884 93.1012 415.773 93.1012 415.773L138.391 383.646C138.391 383.646 135.78 383.017 134.833 382.285C133.885 381.55 133.241 381.231 133.241 381.231Z" fill="#F5F3F3"/>
<path fill-rule="evenodd" clip-rule="evenodd" d="M139.499 382.35L92.2925 415.03L107.624 445.146L110.094 449.317L157.302 413.105C157.302 413.105 152.33 405.413 149.344 400.769C146.359 396.125 140.499 385.173 140.18 384.471C139.86 383.769 139.499 382.35 139.499 382.35Z" fill="#FF7B5B"/>
<path fill-rule="evenodd" clip-rule="evenodd" d="M528.795 156.733L530.128 153.91L567.259 183.314L551.06 210.514L514.099 178.213L528.795 156.733Z" fill="#775298"/>
<path fill-rule="evenodd" clip-rule="evenodd" d="M565.703 183.943L551.474 209.449L550.563 209.029L563.236 185.18L565.703 183.943Z" fill="#D7D4D4"/>
<path fill-rule="evenodd" clip-rule="evenodd" d="M529.529 156.173L565.704 183.942C565.704 183.942 565.551 184.538 564.654 184.906C563.755 185.273 563.235 185.18 563.235 185.18L525.204 158.202C525.204 158.202 527.396 157.675 528.192 157.058C528.987 156.442 529.529 156.173 529.529 156.173Z" fill="#F5F3F3"/>
<path fill-rule="evenodd" clip-rule="evenodd" d="M524.274 157.115L563.915 184.556L551.041 209.846L548.967 213.348L509.323 182.939C509.323 182.939 513.5 176.48 516.006 172.58C518.515 168.681 523.435 159.484 523.702 158.895C523.97 158.307 524.274 157.115 524.274 157.115Z" fill="#775298"/>
<path fill-rule="evenodd" clip-rule="evenodd" d="M81.325 103.81C81.325 103.81 78.5216 105.821 79.9227 109.174C81.325 112.527 87.471 122.473 95.7736 122.137C96.1136 122.125 85.3143 103.81 85.3143 103.81H81.325Z" fill="#FF7B5B"/>
<path fill-rule="evenodd" clip-rule="evenodd" d="M68.6242 287.166C68.6242 287.166 58.2419 277.553 54.9179 279.275C50.8569 281.379 27.6131 304.983 28.5214 316.103C28.8946 320.658 34.01 316.756 43.1254 306.956C52.2434 297.157 63.7239 301.357 63.7239 301.357L68.6242 287.166Z" fill="#775298"/>
<path fill-rule="evenodd" clip-rule="evenodd" d="M93.8489 303.378L81.3153 295.584C81.3153 295.584 48.8272 327.152 53.9028 331.361C57.7527 334.553 60.0156 331.69 69.1322 321.89C78.2476 312.093 89.7972 317.727 89.7972 317.727L93.8489 303.378Z" fill="#775298"/>
<path fill-rule="evenodd" clip-rule="evenodd" d="M170.411 199.521L172.762 234.113L120.588 220.025L170.411 199.521Z" fill="#F3A683"/>
<path fill-rule="evenodd" clip-rule="evenodd" d="M120.588 221.215C120.588 221.215 166.226 224.197 172.303 222.095C172.303 222.095 181.221 312.906 165.352 322.703C149.481 332.503 113.867 318.154 113.867 318.154L123.483 298.557L144.215 297.157V262.162L142.728 262.512L120.588 221.215Z" fill="#112129"/>
<path fill-rule="evenodd" clip-rule="evenodd" d="M63.3797 283.159C63.3797 283.159 51.9005 288.059 55.6149 299.958C55.6149 299.958 94.8 331.804 113.867 324.454C124.55 320.337 136.025 288.925 144.053 262.088L172.303 222.095C172.303 222.095 158.979 222.786 154.535 222.768C146.039 222.735 120.588 221.215 120.588 221.215C120.588 221.215 107.294 293.309 102.557 295.058C97.8199 296.806 63.3797 283.159 63.3797 283.159Z" fill="#22343D"/>
<path fill-rule="evenodd" clip-rule="evenodd" d="M131.223 130.795C131.223 130.795 158.574 104.197 163.3 97.1965C168.027 90.1975 178.159 66.7504 190.649 56.9518L184.572 43.6529C184.572 43.6529 188.288 41.5539 190.649 47.1517C190.649 47.1517 199.427 28.9557 201.454 29.3039C203.482 29.6535 197.403 43.3033 197.403 43.3033C197.403 43.3033 205.847 30.7037 208.209 31.0547C210.57 31.4043 202.131 45.2179 202.131 45.2179C202.131 45.2179 211.584 33.8543 212.936 35.2541C214.286 36.6539 205.507 45.2179 205.507 45.2179C205.507 45.2179 214.961 39.5925 215.974 41.4465C216.987 43.3033 206.52 48.2019 206.52 48.2019C206.52 48.2019 205.507 56.2512 199.093 59.75C199.093 59.75 186.39 95.3191 174.91 106.867L138.03 146.593L131.223 130.795Z" fill="#FFC6B2"/>
<path fill-rule="evenodd" clip-rule="evenodd" d="M98.5734 144.579C98.5734 144.579 72.6575 172.677 65.8609 177.51C59.0629 182.341 36.3475 192.624 26.778 205.48L14.004 199.056C14.004 199.056 11.9443 202.885 17.324 205.386C17.324 205.386 -0.315744 214.315 0.00430299 216.42C0.321694 218.523 13.5472 212.351 13.5472 212.351C13.5472 212.351 1.31238 220.984 1.62844 223.435C1.9445 225.887 15.3493 217.267 15.3493 217.267C15.3493 217.267 4.29771 226.959 5.63633 228.371C6.97229 229.785 15.3187 220.768 15.3187 220.768C15.3187 220.768 9.80225 230.513 11.5844 231.579C13.3639 232.646 18.1885 221.844 18.1885 221.844C18.1885 221.844 25.9626 220.872 29.4008 214.255C29.4008 214.255 61.9061 200.85 73.1569 189.059L113.608 159.352L98.5734 144.579Z" fill="#FFC6B2"/>
<path fill-rule="evenodd" clip-rule="evenodd" d="M108.289 133.381L95.1816 146.68L98.5056 161.671C98.5056 161.671 111.419 193.804 113.371 201.642C116.406 213.832 111.497 232.417 111.497 232.417C111.497 232.417 133.389 230.533 153.309 229.834C173.228 229.133 179.744 222.482 179.744 222.482C179.744 222.482 162.474 162.865 150.55 146.199C138.624 129.536 134.287 124.32 134.287 124.32L116.73 128.298L108.289 133.381Z" fill="white"/>
<path fill-rule="evenodd" clip-rule="evenodd" d="M146.757 144.234L160.414 135.19C160.414 135.19 162.5 125.5 146.03 114.07L126.717 126.613L146.757 144.234Z" fill="white"/>
<path fill-rule="evenodd" clip-rule="evenodd" d="M97.9437 145.628C90.4565 146.717 76.7742 166.384 75.2483 166.347C75.2483 166.347 84.8776 182.634 92.5056 183.163C92.5056 183.163 126.073 141.539 97.9437 145.628Z" fill="white"/>
<path fill-rule="evenodd" clip-rule="evenodd" d="M124.374 132.831C124.374 132.831 113.491 124.403 113.868 121.043C113.963 120.197 115.472 118.823 115.864 117.604C117.974 111.042 107.8 94.136 101.549 90.5725C96.6317 87.7701 98.787 87.5224 88.438 93.8965C78.0889 100.271 83.9852 111.293 88.6066 116.994C92.9757 122.383 97.9796 124.691 102.482 125.08L108.882 139.816L124.374 132.831Z" fill="#FFC6B2"/>
<path fill-rule="evenodd" clip-rule="evenodd" d="M104.736 144.53C102.678 139.297 106.575 132.705 113.443 129.802C120.312 126.898 127.546 128.786 129.608 134.017C131.665 139.248 124.754 147.113 120.897 148.744C117.039 150.375 106.793 149.76 104.736 144.53Z" fill="#FFC6B2"/>
<path fill-rule="evenodd" clip-rule="evenodd" d="M88.607 116.994C88.607 116.994 85.0772 116.792 84.6854 119.229C84.2923 121.668 91.1554 121.668 93.7051 119.839L88.607 116.994Z" fill="#FFC6B2"/>
<path fill-rule="evenodd" clip-rule="evenodd" d="M90.3721 119.23C89.7015 114.824 85.1717 111.548 85.3974 107.255C87.5687 107.273 88.9631 104.485 87.9751 102.103C87.586 101.167 86.9273 100.366 86.5063 99.4423C86.0867 98.5201 85.9751 97.3116 86.6192 96.79C86.9246 96.5436 87.3376 96.5009 87.7334 96.4596C90.9524 96.1169 96.4676 97.1176 99.4304 95.9793C102.251 94.896 105.274 92.7888 104.98 89.2073C104.724 86.0884 102.066 83.56 99.6256 81.6495C98.2272 80.5539 94.2313 77.6896 92.724 77.9497C90.4226 78.3461 89.8648 81.5284 89.6988 84.1917C88.0893 82.6034 85.7148 82.858 84.3151 84.1504C82.9154 85.4429 82.2528 87.4965 81.6432 89.4785C81.0323 91.4619 80.3856 93.521 79.0045 94.8382C77.7177 96.066 75.6818 96.9951 75.9488 99.0831C76.2662 101.572 79.4029 102.457 80.853 104.579C80.4958 104.059 80.193 107.381 80.3989 107.944C81.0177 109.641 82.5622 110.765 83.679 112.063C86.0575 114.829 87.2208 117.615 90.3721 119.23Z" fill="#FF7B5B"/>
<path fill-rule="evenodd" clip-rule="evenodd" d="M110.091 109.155L102.049 113.466C102.049 113.466 111.708 120.733 110.091 109.155Z" fill="white"/>
<path fill-rule="evenodd" clip-rule="evenodd" d="M99.0267 110.864C99.4663 111.729 98.8155 112.978 97.5739 113.656C96.3322 114.333 94.9697 114.181 94.5301 113.317C94.0919 112.453 94.7413 111.204 95.9829 110.526C97.2259 109.848 98.5871 110 99.0267 110.864Z" fill="#FFB2A0"/>
<path fill-rule="evenodd" clip-rule="evenodd" d="M110.77 102.55C111.209 103.414 110.559 104.664 109.317 105.341C108.075 106.019 106.713 105.867 106.273 105.003C105.835 104.138 106.484 102.889 107.726 102.211C108.969 101.534 110.33 101.686 110.77 102.55Z" fill="#FFB2A0"/>
<path fill-rule="evenodd" clip-rule="evenodd" d="M104.477 108.849C104.44 108.801 104.59 108.596 104.938 108.336C105.27 108.07 105.847 107.784 106.276 107.305C106.701 106.841 106.854 105.874 106.203 105.737C105.527 105.499 104.76 106.303 103.879 107.067C103.661 107.254 103.446 107.44 103.232 107.623C103.033 107.813 102.614 108.091 102.178 108.035C101.348 107.896 100.995 107.322 100.676 106.938C100.039 106.09 99.6455 105.202 99.4277 104.434C98.9961 102.881 99.19 101.879 99.2935 101.888C99.4383 101.881 99.4861 102.844 100.035 104.209C100.311 104.888 100.724 105.659 101.325 106.387C101.619 106.756 101.988 107.1 102.251 107.111C102.361 107.116 102.448 107.078 102.655 106.898C102.866 106.715 103.078 106.529 103.293 106.342C103.737 105.97 104.121 105.594 104.628 105.245C105.121 104.9 105.823 104.683 106.453 104.905C107.125 105.088 107.519 105.9 107.402 106.464C107.327 107.039 107.05 107.463 106.737 107.773C106.074 108.347 105.482 108.486 105.109 108.659C104.726 108.809 104.517 108.903 104.477 108.849Z" fill="#FF7B5B"/>
<path fill-rule="evenodd" clip-rule="evenodd" d="M102.481 125.081C102.481 125.081 107.611 125.111 110.395 123.334C110.395 123.334 108.04 126.332 103.329 127.108L102.481 125.081Z" fill="#FFA192"/>
<path fill-rule="evenodd" clip-rule="evenodd" d="M104.706 101.236C104.66 101.499 103.943 101.58 103.184 101.927C102.415 102.249 101.86 102.727 101.646 102.578C101.427 102.458 101.79 101.509 102.828 101.056C103.866 100.6 104.774 100.988 104.706 101.236Z" fill="#22343D"/>
<path fill-rule="evenodd" clip-rule="evenodd" d="M94.653 108.071C94.4592 107.922 94.7633 107.066 95.5016 106.209C96.2493 105.333 97.2041 105.042 97.305 105.287C97.4113 105.525 96.8296 106.079 96.1749 106.849C95.5096 107.615 94.8629 108.233 94.653 108.071Z" fill="#22343D"/>
<path fill-rule="evenodd" clip-rule="evenodd" d="M90.7558 106.75C90.3402 106.43 90.0161 105.064 91.6071 103.222C93.2126 101.339 95.0067 101.671 95.2219 102.194C95.4529 102.707 94.8553 103.438 93.4463 105.094C92.0161 106.744 91.206 107.099 90.7558 106.75Z" fill="#FF7B5B"/>
<path fill-rule="evenodd" clip-rule="evenodd" d="M99.2009 99.4954C98.9712 99.0494 99.2248 97.7515 101.294 96.8472C103.392 95.9126 104.79 96.9435 104.771 97.479C104.767 98.0116 103.976 98.3846 102.133 99.2077C100.277 100.016 99.4493 99.9813 99.2009 99.4954Z" fill="#FF7B5B"/>
<path fill-rule="evenodd" clip-rule="evenodd" d="M540.51 112.407C540.645 112.546 538.417 115.144 533.793 117.974C529.226 120.801 522.04 123.604 513.774 123.667C505.509 123.73 498.283 121.038 493.676 118.281C489.014 115.523 486.748 112.957 486.881 112.815C487.074 112.563 489.607 114.727 494.277 117.096C498.901 119.474 505.87 121.835 513.76 121.776C521.652 121.714 528.585 119.247 533.176 116.799C537.81 114.358 540.314 112.156 540.51 112.407Z" fill="#775298"/>
<path fill-rule="evenodd" clip-rule="evenodd" d="M490.085 108.481C489.959 108.769 487.491 107.708 483.334 106.747C481.263 106.24 478.749 105.849 475.95 105.489C473.139 105.167 470.033 104.911 466.753 104.669C463.472 104.43 460.331 104.156 457.478 103.79C454.626 103.398 452.063 102.931 449.951 102.34C445.712 101.193 443.311 99.8359 443.395 99.6446C443.505 99.3556 446.03 100.249 450.228 101.032C452.322 101.446 454.849 101.767 457.663 102.057C460.484 102.324 463.599 102.543 466.885 102.783C470.173 103.025 473.319 103.338 476.169 103.761C479.017 104.225 481.572 104.765 483.663 105.453C487.86 106.781 490.179 108.301 490.085 108.481Z" fill="#775298"/>
<mask id="mask0" mask-type="alpha" maskUnits="userSpaceOnUse" x="423" y="35" width="166" height="85">
<path fill-rule="evenodd" clip-rule="evenodd" d="M423.43 35.5612H589V119.637H423.43V35.5612Z" fill="white"/>
</mask>
<g mask="url(#mask0)">
<path fill-rule="evenodd" clip-rule="evenodd" d="M440.084 52.5908C447.964 50.8579 456.129 52.3499 464.074 53.7222C472.021 55.0944 480.27 56.3318 488.039 54.1213C502.065 50.1311 512.713 35.4435 527.259 35.5619C533.248 35.61 538.893 38.261 544.728 39.6636C551.974 41.4061 559.522 41.2189 566.862 42.4618C574.203 43.7047 581.786 46.7644 585.935 53.1634C590.856 60.757 589.507 71.4682 584.343 78.887C579.178 86.3072 570.907 90.8246 562.433 93.3847C556.522 95.1699 550.225 96.2022 545.11 99.7547C539.936 103.348 536.557 109.132 531.737 113.219C519.64 123.472 500.814 120.533 488.319 110.807C485.18 108.364 482.27 105.529 478.743 103.741C464.397 96.4623 443.764 106.097 431.408 92.8548C418.861 79.4059 420.649 56.8631 440.084 52.5908Z" fill="#775298"/>
</g>
<path fill-rule="evenodd" clip-rule="evenodd" d="M436.146 313.047C436.146 313.047 449.291 342.248 450.829 336.841C452.363 331.432 451.855 318.446 451.032 316.592C450.205 314.738 444.832 306.547 444.832 306.547L436.146 313.047Z" fill="#FFB2A0"/>
<path fill-rule="evenodd" clip-rule="evenodd" d="M531.193 76.9205C532.409 78.535 531.597 76.8008 532.974 79.1296C538.697 78.9232 542.539 73.9034 542.539 73.9034C542.539 73.9034 551.624 74.1526 551.519 72.4706C551.416 70.7859 542.81 71.4149 542.81 71.4149C542.81 71.4149 551.914 68.4515 551.414 66.9718C550.918 65.4936 540.408 70.2092 540.408 70.2092C540.408 70.2092 551.013 63.3863 549.446 62.2921C547.88 61.2006 537.676 67.1563 537.676 67.1563C537.676 67.1563 546.545 59.6067 545.215 58.6336C543.889 57.6605 531.587 67.4866 531.587 67.4866C531.767 62.6527 528.421 62.822 528.421 62.822L528.559 74.6247C528.559 74.6247 530.632 76.1773 531.193 76.9205Z" fill="#FFC6B2"/>
<path fill-rule="evenodd" clip-rule="evenodd" d="M396.53 23.502C394.586 23.8737 396.093 23.1731 393.57 23.9714C389.425 19.8752 389.975 13.4378 389.975 13.4378C389.975 13.4378 383.024 7.37332 384.177 6.18823C385.336 5.00039 391.367 11.3924 391.367 11.3924C391.367 11.3924 386.46 2.91101 387.78 2.14848C389.098 1.38595 393.939 12.1439 393.939 12.1439C393.939 12.1439 390.377 -0.256104 392.25 0.00403662C394.119 0.264177 397.936 11.7379 397.936 11.7379C397.936 11.7379 396.141 -0.00835103 397.754 0.177464C399.37 0.361902 402.277 16.1754 402.277 16.1754C405.239 12.4371 407.63 14.8665 407.63 14.8665L400.123 23.4236C400.123 23.4236 397.423 23.3327 396.53 23.502Z" fill="#FFC6B2"/>
<path fill-rule="evenodd" clip-rule="evenodd" d="M443.683 72.8034C441.169 72.3754 435.091 76.5624 432.05 83.3866C430.348 87.2061 429.176 91.0862 431.13 97.2979C432.05 100.22 433.976 100.586 434.406 101.895C434.949 103.552 433.15 108.776 433.15 108.776L440.325 111.779C440.791 108.191 441.319 104.581 444.848 103.022C446.168 102.439 447.581 102.07 448.827 101.329C452.188 99.3323 453.983 94.9636 455.364 91.3863C456.395 88.7147 449.986 73.8743 443.683 72.8034Z" fill="#FFC6B2"/>
<path fill-rule="evenodd" clip-rule="evenodd" d="M435.142 174.221L423.121 169.222C423.121 169.222 387.446 237.791 387.595 256.815C387.742 275.839 436.592 313.928 436.592 313.928L444.831 306.548C444.831 306.548 429.749 279.291 421.687 269.681C413.623 260.068 435.142 174.221 435.142 174.221Z" fill="#FFB2A0"/>
<path fill-rule="evenodd" clip-rule="evenodd" d="M494.828 252.331C494.828 252.331 521.323 239.302 515.999 238.151C510.675 237.006 498.224 238.585 496.509 239.587C494.792 240.59 487.353 246.805 487.353 246.805L494.828 252.331Z" fill="#FFC6B2"/>
<path fill-rule="evenodd" clip-rule="evenodd" d="M446.95 173.626L428.714 180.503C428.714 180.503 410.473 263.66 417.437 276.715C424.398 289.776 443.955 281.133 471.809 265.378L495.139 252.178L487.352 246.806C487.352 246.806 460.203 252.32 452.579 257.817C452.579 257.817 456.558 246.133 461.863 229.639C467.167 213.144 470.826 196.307 446.95 173.626Z" fill="#FFC6B2"/>
<path fill-rule="evenodd" clip-rule="evenodd" d="M424.504 116.974C424.504 111.449 426.22 107.453 431.55 107.453C436.881 107.453 444.25 109.39 444.25 114.916C444.25 120.444 440.05 129.417 434.716 129.417C429.386 129.417 424.504 122.502 424.504 116.974Z" fill="#FFC6B2"/>
<path fill-rule="evenodd" clip-rule="evenodd" d="M428.714 106.662C428.714 106.662 412.138 88.0692 408.822 69.8552C405.504 51.644 399.871 22.0912 399.871 22.0912L393.571 23.9714C393.571 23.9714 390.586 64.3592 393.571 70.5434C396.554 76.729 411.134 117.908 415.573 128.723L428.714 106.662Z" fill="#FFC6B2"/>
<path fill-rule="evenodd" clip-rule="evenodd" d="M446.522 121.152C446.522 121.152 447.797 115.369 468.758 107.508C489.719 99.6486 529.264 74.1727 529.264 74.1727L533.21 78.8511C533.21 78.8511 511.723 104.575 499.222 109.087C486.722 113.6 460.171 131.39 457.44 132.813C453.308 134.967 453.359 137.677 446.522 121.152Z" fill="#FFC6B2"/>
<path fill-rule="evenodd" clip-rule="evenodd" d="M428.713 106.662C428.713 106.662 411.872 112.319 411.872 138.879C411.872 138.879 411.882 175.256 415.852 181.874C415.852 181.874 422.305 183.588 430.35 181.874C438.785 180.077 446.949 173.627 446.949 173.627L460.198 132.405L458.613 113.091L440.6 109.486C440.6 109.486 445.768 134.513 427.072 123.754C423.439 121.663 432.417 107.464 432.417 107.464L428.713 106.662Z" fill="#22343D"/>
<path fill-rule="evenodd" clip-rule="evenodd" d="M414.464 128.263L406.165 110.344C406.165 110.344 407.355 99.4731 422.59 95.5779C422.59 95.5779 424.13 101.057 425.819 103.151C427.507 105.243 432.423 107.47 432.423 107.47L414.464 128.263Z" fill="#22343D"/>
<path fill-rule="evenodd" clip-rule="evenodd" d="M445.837 135.466L472.226 129.86C472.226 129.86 476.814 120.008 465.935 108.288C465.935 108.288 445.351 109.576 442.687 109.806C440.065 110.032 441.865 112.125 441.865 112.125L445.837 135.466Z" fill="#22343D"/>
<path fill-rule="evenodd" clip-rule="evenodd" d="M415.81 173.014C415.81 173.014 390.85 220.842 386.727 229.388C386.727 229.388 460.363 264.447 490.254 222.248C490.254 222.248 473.251 184.947 446.964 170.747L435.625 167.227L416.253 172.784" fill="#22343D"/>
<path fill-rule="evenodd" clip-rule="evenodd" d="M454.398 90.9341C454.398 90.9341 457.241 87.9872 458.99 90.027C460.739 92.0669 452.649 95.0137 452.649 95.0137L454.398 90.9341Z" fill="#FFC6B2"/>
<path fill-rule="evenodd" clip-rule="evenodd" d="M506.405 50.7433C506.432 50.8451 505.334 51.3379 503.237 51.854C501.146 52.3757 498.042 52.8492 494.187 52.9304C490.334 53.0102 485.753 52.6551 480.738 51.9504C475.72 51.2608 470.268 50.2478 464.533 49.5995C458.807 48.965 453.301 48.8493 448.424 49.6656C443.547 50.468 439.325 52.1238 436.098 54.0577C432.871 56.0067 430.625 58.169 429.247 59.8055C427.86 61.4435 427.236 62.4895 427.095 62.4014C427.018 62.3602 427.435 61.1819 428.692 59.3458C429.94 57.5152 432.143 55.0996 435.429 52.9153C438.711 50.7447 443.075 48.8796 448.145 47.9464C453.222 46.9995 458.901 47.0724 464.727 47.7193C470.558 48.3786 476.016 49.4495 480.976 50.2258C485.935 51.0172 490.417 51.5017 494.191 51.5925C501.757 51.8114 506.335 50.4198 506.405 50.7433Z" fill="#775298"/>
<path fill-rule="evenodd" clip-rule="evenodd" d="M439.919 89.2612C439.911 89.3768 439.101 89.458 437.865 89.0327C437.559 88.9212 437.198 88.7753 436.862 88.456C436.696 88.2963 436.542 88.0843 436.448 87.8297C436.312 87.4732 436.323 87.0686 436.457 86.7602C436.497 86.6983 436.494 86.551 436.573 86.5483L436.813 86.54C436.967 86.518 437.149 86.5703 437.327 86.6047C437.654 86.6694 437.759 86.6598 437.991 86.6763C438.399 86.6859 438.821 86.6419 439.243 86.5455C440.97 86.1684 442.125 84.8663 442.643 83.7955C443.186 82.7177 443.234 81.907 443.379 81.9167C443.481 81.9029 443.683 82.7645 443.234 84.0652C443.005 84.7025 442.608 85.4334 441.967 86.0748C441.329 86.7148 440.446 87.2406 439.444 87.4677C438.943 87.5833 438.44 87.6274 437.955 87.6012C437.744 87.5902 437.412 87.5462 437.315 87.5241C437.226 87.509 437.237 87.4884 437.219 87.4994C437.209 87.5104 437.203 87.5283 437.205 87.5544C437.241 87.6783 437.306 87.7967 437.397 87.9027C437.582 88.1188 437.85 88.2798 438.112 88.4147C439.181 88.9584 439.939 89.1194 439.919 89.2612Z" fill="#FF7B5B"/>
<path fill-rule="evenodd" clip-rule="evenodd" d="M434 89.5797L443.721 93.5493C443.721 93.5493 435.178 99.655 434 89.5797Z" fill="white"/>
<path fill-rule="evenodd" clip-rule="evenodd" d="M447.872 91.4897C447.526 92.1697 446.456 92.2881 445.48 91.7554C444.504 91.2241 443.992 90.2413 444.336 89.5628C444.682 88.8828 445.753 88.7631 446.729 89.2958C447.706 89.8284 448.217 90.8098 447.872 91.4897Z" fill="#FFB2A0"/>
<path fill-rule="evenodd" clip-rule="evenodd" d="M437.023 85.5277C436.728 86.2324 435.669 86.4361 434.657 85.9819C433.645 85.5277 433.062 84.589 433.357 83.8843C433.651 83.1796 434.711 82.9758 435.722 83.4301C436.734 83.8843 437.317 84.823 437.023 85.5277Z" fill="#FFB2A0"/>
<path fill-rule="evenodd" clip-rule="evenodd" d="M433.422 100.629C433.422 100.629 436.829 103.587 440.384 102.635C440.384 102.635 439.159 104.54 434.44 103.84C434.44 103.84 434.832 101.741 433.422 100.629Z" fill="#FFA192"/>
<path fill-rule="evenodd" clip-rule="evenodd" d="M446.939 85.1621C446.939 85.6025 446.594 85.9604 446.169 85.9604C445.744 85.9604 445.399 85.6025 445.399 85.1621C445.399 84.7216 445.744 84.3638 446.169 84.3638C446.594 84.3638 446.939 84.7216 446.939 85.1621Z" fill="#22343D"/>
<path fill-rule="evenodd" clip-rule="evenodd" d="M440.636 82.8093C440.636 83.2498 440.291 83.6076 439.866 83.6076C439.441 83.6076 439.097 83.2498 439.097 82.8093C439.097 82.3689 439.441 82.011 439.866 82.011C440.291 82.011 440.636 82.3689 440.636 82.8093Z" fill="#22343D"/>
<path fill-rule="evenodd" clip-rule="evenodd" d="M449.414 83.0357C449.176 83.1403 448.716 82.5636 448.021 82.097C447.339 81.6098 446.649 81.3909 446.65 81.1239C446.627 80.8679 447.592 80.6601 448.528 81.3111C449.465 81.958 449.651 82.9587 449.414 83.0357Z" fill="#775298"/>
<path fill-rule="evenodd" clip-rule="evenodd" d="M438.306 79.1625C438.29 78.9134 439.117 78.5996 440.225 78.6299C441.352 78.6546 442.185 79.2217 442.069 79.4585C441.963 79.698 441.178 79.5947 440.189 79.5755C439.194 79.5452 438.322 79.4337 438.306 79.1625Z" fill="#775298"/>
<path fill-rule="evenodd" clip-rule="evenodd" d="M441.777 324.912C441.777 324.912 445.821 339.788 449.996 338.57C454.171 337.354 451.032 316.592 451.032 316.592L446.866 309.768C446.866 309.768 450.779 344.521 441.777 324.912Z" fill="#22343D"/>
<path fill-rule="evenodd" clip-rule="evenodd" d="M492.767 242.439C492.767 242.439 495.708 239.114 499.272 238.561C502.838 238.006 515.58 236.436 517.451 238.19C519.323 239.945 507.123 245.83 507.123 245.83C507.123 245.83 511.374 243.022 509.609 241.978C506.489 240.13 492.767 242.439 492.767 242.439Z" fill="#22343D"/>
<path fill-rule="evenodd" clip-rule="evenodd" d="M487.711 246.422L491.701 254.817L493.877 253.564L488.557 245.295L487.711 246.422Z" fill="#22343D"/>
<path fill-rule="evenodd" clip-rule="evenodd" d="M443.102 303.181L433.31 312.329L436.211 314.835L444.432 305.563L443.102 303.181Z" fill="#22343D"/>
<path fill-rule="evenodd" clip-rule="evenodd" d="M238.373 212.115C235.588 204.952 234.518 196.977 230.362 190.567C224.382 181.344 212.897 176.767 208.044 166.857C205.983 162.648 205.336 157.834 205.315 153.114C205.275 143.776 207.972 133.85 214.931 127.916C222.927 121.097 234.924 121.192 244.289 125.773C253.651 130.354 260.805 138.668 266.887 147.354C272.971 156.037 278.296 165.357 285.38 173.183C290.632 178.986 296.862 183.991 300.818 190.808C311.663 209.498 300.504 233.146 281.357 239.892C264.533 245.818 244.193 227.09 238.373 212.115Z" fill="#22343D"/>
<path fill-rule="evenodd" clip-rule="evenodd" d="M214.404 343.933C216.07 345.352 214.253 344.37 216.675 346.005C216.135 352.277 210.537 356.229 210.537 356.229C210.537 356.229 210.301 366.215 208.503 366.009C206.701 365.807 207.855 356.394 207.855 356.394C207.855 356.394 204.17 366.23 202.611 365.603C201.053 364.98 206.694 353.693 206.694 353.693C206.694 353.693 198.787 364.973 197.701 363.195C196.616 361.418 203.573 350.533 203.573 350.533C203.573 350.533 194.983 359.868 194.012 358.357C193.042 356.849 204.264 343.867 204.264 343.867C199.07 343.808 199.438 340.144 199.438 340.144L212.088 340.922C212.088 340.922 213.638 343.278 214.404 343.933Z" fill="#FFC6B2"/>
<path fill-rule="evenodd" clip-rule="evenodd" d="M335.258 155.602C337.423 155.995 335.743 155.252 338.551 156.098C343.165 151.754 342.553 144.929 342.553 144.929C342.553 144.929 350.29 138.498 349.007 137.242C347.716 135.982 341.004 142.758 341.004 142.758C341.004 142.758 346.465 133.766 344.996 132.957C343.53 132.149 338.142 143.557 338.142 143.557C338.142 143.557 342.106 130.408 340.021 130.683C337.942 130.96 333.694 143.126 333.694 143.126C333.694 143.126 335.691 130.671 333.894 130.868C332.096 131.063 329.188 147.38 329.188 147.38C324.951 143.807 321.986 146.095 321.986 146.095L331.258 155.518C331.258 155.518 334.263 155.423 335.258 155.602Z" fill="#FFC6B2"/>
<path fill-rule="evenodd" clip-rule="evenodd" d="M282.298 210.138C286.211 209.504 298.146 217.521 295.109 233.799C294.855 235.166 293.133 238.175 292.704 239.419C292.162 240.995 296.384 246.764 296.384 246.764L285.485 250.373C285.02 246.961 285.802 241.974 282.28 240.491C280.963 239.937 279.553 239.586 278.31 238.882C274.954 236.983 273.162 232.828 271.784 229.427C270.755 226.884 269.971 224.151 270 221.392C270.072 214.447 276.007 211.156 282.298 210.138Z" fill="#FFC6B2"/>
<path fill-rule="evenodd" clip-rule="evenodd" d="M304.123 254.721C304.123 248.862 302.33 246.625 296.396 246.625C290.463 246.625 282.63 248.862 282.63 254.721C282.63 260.582 286.82 267.915 292.756 267.915C298.688 267.915 304.123 260.582 304.123 254.721Z" fill="#FFC6B2"/>
<path fill-rule="evenodd" clip-rule="evenodd" d="M299.437 243.785C299.437 243.785 317.887 224.069 321.577 204.756C325.269 185.443 331.54 154.105 331.54 154.105L338.552 156.098C338.552 156.098 341.874 198.927 338.552 205.485C335.232 212.045 316.41 257.594 316.779 269.254L299.437 243.785Z" fill="#FFC6B2"/>
<path fill-rule="evenodd" clip-rule="evenodd" d="M266.549 253.331C266.549 253.331 260.276 254.424 250.681 277.018C241.086 299.61 211.565 341.67 211.565 341.67L216.363 346.249C216.363 346.249 245.146 324.023 250.681 310.541C256.215 297.059 263.226 280.298 266.549 281.024C269.869 281.755 283.893 261.711 266.549 253.331Z" fill="#FFC6B2"/>
<path fill-rule="evenodd" clip-rule="evenodd" d="M315.944 272.266L324.535 247.69C324.535 247.69 323.209 236.164 306.253 232.032L296.648 246.376L315.944 272.266Z" fill="#FF7B5B"/>
<path fill-rule="evenodd" clip-rule="evenodd" d="M269.413 251.445C269.413 251.445 259.278 252.33 251.063 271.031C251.063 271.031 260.097 283.959 266.707 284.395C266.707 284.395 291.255 262.648 269.413 251.445Z" fill="#FF7B5B"/>
<path fill-rule="evenodd" clip-rule="evenodd" d="M297.261 473.221C297.261 473.221 282.63 504.186 280.92 498.454C279.212 492.718 279.777 478.946 280.693 476.98C281.613 475.013 287.594 466.328 287.594 466.328L297.261 473.221Z" fill="#FFC6B2"/>
<path fill-rule="evenodd" clip-rule="evenodd" d="M298.379 326.008L311.758 320.706C311.758 320.706 351.465 393.419 351.301 413.593C351.136 433.764 296.765 474.156 296.765 474.156L287.594 466.328C287.594 466.328 313.365 427.057 322.338 416.866C326.826 411.769 294.702 386.793 289.836 362.761C284.97 338.728 298.379 326.008 298.379 326.008Z" fill="#654287"/>
<path fill-rule="evenodd" clip-rule="evenodd" d="M217.934 457C217.934 457 190.567 477.908 191.705 472.04C192.847 466.167 199.737 454.181 201.464 452.848C203.195 451.517 212.539 446.501 212.539 446.501L217.934 457Z" fill="#FFC6B2"/>
<path fill-rule="evenodd" clip-rule="evenodd" d="M261.977 351.756L301.562 327.979C301.562 327.979 303.133 410.574 293.63 428.433C284.128 446.292 217.06 457.606 217.06 457.606L212.538 446.501C212.538 446.501 253.916 420.949 266.62 415.949C279.325 410.946 261.977 351.756 261.977 351.756Z" fill="#775298"/>
<path fill-rule="evenodd" clip-rule="evenodd" d="M285.552 311.714C285.552 311.714 256.405 322.41 261.978 351.756C267.549 381.101 276.835 386.603 276.835 386.603L293.551 358.176L310.333 320.948L293.551 318.742L285.552 311.714Z" fill="#775298"/>
<path fill-rule="evenodd" clip-rule="evenodd" d="M299.437 243.785C299.437 243.785 320.896 256.25 320.896 284.415C320.896 284.415 318.17 316.525 313.752 323.541C313.752 323.541 306.57 325.359 297.615 323.541C288.226 321.636 279.14 314.796 279.14 314.796L271.807 275.484L266.102 252.529L269.195 251.472L285.334 249.635C285.334 249.635 283.015 274.622 301.036 262.214C304.831 259.6 296.311 246.571 296.311 246.571L299.437 243.785Z" fill="#FF7B5B"/>
<path fill-rule="evenodd" clip-rule="evenodd" d="M312.572 137.352L357.564 164.555L382.873 115.007L340.692 90.7194L312.572 137.352Z" fill="white"/>
<path fill-rule="evenodd" clip-rule="evenodd" d="M375.164 374.533L407.342 353.887L380.757 305.791L351.342 325.56L375.164 374.533Z" fill="white"/>
<path fill-rule="evenodd" clip-rule="evenodd" d="M216.726 169.587C216.811 169.508 217.804 170.443 219.375 172.349C220.94 174.258 223.074 177.161 225.216 181.078C227.366 184.979 229.493 189.929 231.012 195.674C232.585 201.376 233.639 207.786 236.056 213.961C237.311 217.011 238.832 219.85 240.642 222.361C242.468 224.855 244.493 227.043 246.578 228.952C250.838 232.669 255.301 235.225 259.279 236.702C263.252 238.199 266.656 238.871 269.022 239.112C271.386 239.383 272.722 239.423 272.723 239.584C272.73 239.684 271.398 239.895 268.971 239.847C266.544 239.827 263.013 239.347 258.854 237.965C254.692 236.603 249.99 234.081 245.493 230.283C243.287 228.332 241.144 226.072 239.213 223.474C237.298 220.862 235.68 217.875 234.367 214.678C231.849 208.224 230.854 201.757 229.39 196.131C227.991 190.485 226.047 185.626 224.082 181.717C222.128 177.797 220.189 174.825 218.815 172.799C217.432 170.777 216.622 169.682 216.726 169.587Z" fill="#22343D"/>
<path fill-rule="evenodd" clip-rule="evenodd" d="M272.004 137.761C272.334 137.708 272.656 142.299 275.134 149.088C276.371 152.47 278.212 156.361 280.856 160.262C282.177 162.215 283.698 164.139 285.419 166.057C287.128 167.982 288.99 169.938 290.75 172.132C294.278 176.56 296.706 181.346 298.991 185.57C301.261 189.836 303.068 193.893 303.987 197.523C304.946 201.141 305.002 204.256 304.698 206.322C304.38 208.398 303.882 209.449 303.8 209.42C303.642 209.378 303.899 208.267 303.99 206.256C304.068 204.248 303.821 201.322 302.749 197.901C301.714 194.467 299.85 190.597 297.525 186.422C295.164 182.249 292.715 177.559 289.345 173.339C287.653 171.228 285.817 169.279 284.098 167.305C282.369 165.341 280.796 163.296 279.47 161.249C276.808 157.151 275.032 153.068 273.919 149.537C272.781 146.008 272.296 143.029 272.066 140.977C271.839 138.921 271.9 137.77 272.004 137.761Z" fill="#22343D"/>
<path fill-rule="evenodd" clip-rule="evenodd" d="M285.797 227.832C285.78 227.7 286.513 227.579 287.205 226.736C287.364 226.542 287.525 226.259 287.522 226.093C287.518 225.916 287.399 225.608 287.193 225.43C286.979 225.232 286.741 225.136 286.428 225.169C286.104 225.193 285.71 225.36 285.194 225.44C284.066 225.595 283.185 224.935 282.606 224.399C282.011 223.836 281.557 223.265 281.218 222.753C280.544 221.722 280.334 220.977 280.438 220.922C280.557 220.856 280.963 221.473 281.724 222.337C282.104 222.767 282.584 223.259 283.149 223.734C283.707 224.195 284.39 224.615 285.071 224.504C285.432 224.456 285.853 224.281 286.366 224.245C286.888 224.191 287.468 224.44 287.787 224.812C288.125 225.192 288.315 225.639 288.275 226.169C288.174 226.711 287.897 226.965 287.667 227.201C286.675 228.102 285.765 227.954 285.797 227.832Z" fill="#FF7B5B"/>
<path fill-rule="evenodd" clip-rule="evenodd" d="M291.115 228.608L282.473 231.864C282.473 231.864 289.805 238.512 291.115 228.608Z" fill="white"/>
<path fill-rule="evenodd" clip-rule="evenodd" d="M281.611 228.053C281.956 228.733 281.445 229.716 280.469 230.247C279.493 230.78 278.422 230.661 278.077 229.981C277.732 229.303 278.243 228.32 279.219 227.787C280.195 227.255 281.266 227.373 281.611 228.053Z" fill="#FFB2A0"/>
<path fill-rule="evenodd" clip-rule="evenodd" d="M291.855 222.609C292.138 223.319 291.54 224.246 290.521 224.683C289.502 225.12 288.446 224.899 288.163 224.189C287.88 223.478 288.478 222.551 289.498 222.114C290.516 221.678 291.572 221.898 291.855 222.609Z" fill="#FFB2A0"/>
<path fill-rule="evenodd" clip-rule="evenodd" d="M282.729 240.73C282.729 240.73 285.62 241.339 289.305 240.385C289.305 240.385 287.489 242.215 284.52 242.64C284.52 242.64 283.855 241.365 282.729 240.73Z" fill="#FFA192"/>
<path fill-rule="evenodd" clip-rule="evenodd" d="M285.682 220.598C286.006 220.883 286.046 221.386 285.771 221.722C285.497 222.058 285.012 222.099 284.686 221.815C284.362 221.531 284.323 221.027 284.597 220.69C284.872 220.354 285.358 220.313 285.682 220.598Z" fill="#22343D"/>
<path fill-rule="evenodd" clip-rule="evenodd" d="M279.876 224.06C280.2 224.345 280.24 224.849 279.965 225.185C279.691 225.521 279.205 225.562 278.88 225.277C278.556 224.992 278.516 224.49 278.791 224.153C279.066 223.817 279.552 223.775 279.876 224.06Z" fill="#22343D"/>
<path fill-rule="evenodd" clip-rule="evenodd" d="M285.717 217.266C285.64 217.522 284.919 217.513 284.126 217.762C283.326 217.985 282.72 218.389 282.523 218.215C282.32 218.069 282.79 217.171 283.875 216.852C284.957 216.528 285.814 217.029 285.717 217.266Z" fill="#22343D"/>
<path fill-rule="evenodd" clip-rule="evenodd" d="M275.686 223.546C275.492 223.397 275.796 222.541 276.534 221.685C277.281 220.809 278.237 220.517 278.336 220.761C278.444 220.999 277.861 221.554 277.206 222.323C276.542 223.09 275.895 223.709 275.686 223.546Z" fill="#22343D"/>
<path fill-rule="evenodd" clip-rule="evenodd" d="M272.426 230.196C272.426 230.196 269.655 227.783 268.324 229.966C266.995 232.149 274.311 233.298 274.311 233.298L272.426 230.196Z" fill="#FFC6B2"/>
<path fill-rule="evenodd" clip-rule="evenodd" d="M205.785 450.206C205.785 450.206 201.812 451.996 200.776 453.071C199.739 454.145 190.237 471.154 191.447 473.303C192.657 475.452 202.185 468.158 202.185 468.158C202.185 468.158 194.212 469.723 205.785 450.206Z" fill="#775298"/>
<path fill-rule="evenodd" clip-rule="evenodd" d="M283.32 472.698C283.32 472.698 280.498 475.86 280.063 477.312C279.627 478.762 278.848 498.4 280.883 499.719C282.918 501.039 288.48 490.202 288.48 490.202C288.48 490.202 281.83 495.601 283.32 472.744" fill="#775298"/>
</svg>
